<?xml version="1.0" encoding="utf-8"?>
<!-- Generator: Adobe Illustrator 16.0.3, SVG Export Plug-In . SVG Version: 6.00 Build 0)  -->
<!DOCTYPE svg PUBLIC "-//W3C//DTD SVG 1.1//EN" "http://www.w3.org/Graphics/SVG/1.1/DTD/svg11.dtd">
<svg version="1.1" id="Capa_1" xmlns:xodm="http://www.corel.com/coreldraw/odm/2003"
	 xmlns="http://www.w3.org/2000/svg" xmlns:xlink="http://www.w3.org/1999/xlink" x="0px" y="0px" width="948px" height="437px"
	 viewBox="0 0 948 437" enable-background="new 0 0 948 437" xml:space="preserve">
<g id="Camada_x0020_1">
	<g id="_1985391223488">
		<path fill="#FFFFFF" d="M108.234,47.773h-6.21L90.49,117.092l14.49-1.249c7.69-7.496,15.379-27.79,15.379-49.647
			C120.359,52.771,116.22,47.773,108.234,47.773L108.234,47.773z M99.953,148.003l-15.079,1.562l-7.69,46.209l13.9,3.436
			l-0.887,4.997c-1.776,9.992-4.438,17.485-7.986,23.729H0l5.617-28.725l11.534-3.436L42.288,47.149l-12.421-3.436l0.887-4.995
			c1.774-9.992,4.437-17.485,7.984-23.73h75.707c41.402,0,63.876,16.861,63.876,57.452
			C178.321,118.653,147.864,143.007,99.953,148.003L99.953,148.003z"/>
		<path fill="#FFFFFF" d="M240.729,108.349c-0.887,0-4.436,0.313-5.324,0.626c-3.253,1.248-11.829,37.779-11.829,71.813
			c0,12.491,0.886,14.677,5.914,14.677c0.888,0,4.437-0.314,5.322-0.625c3.254-1.249,11.829-37.782,11.829-71.816
			C246.64,110.536,245.754,108.349,240.729,108.349L240.729,108.349z M226.828,231.059c-39.333,0-58.85-26.227-58.85-61.51
			c0-63.075,33.712-96.796,75.706-96.796c39.037,0,58.555,26.229,58.555,61.511C302.24,197.339,268.526,231.059,226.828,231.059z"/>
		<path fill="#FFFFFF" d="M411.959,231.059c-16.857,0-28.095-5.932-31.938-18.733l16.561-92.113
			c-1.48-1.562-4.141-2.497-6.802-2.497c-3.254,0-7.098,0.935-11.238,3.434l-17.447,104.601c-6.803,2.812-25.14,3.747-33.121,3.747
			c-8.579,0-16.267-0.936-21.885-2.811l19.519-115.216l-3.548-4.06c-3.549-4.057-5.619-8.431-6.21-11.866l2.958-16.547l62.988-6.246
			l-2.956,21.232h1.773c17.447-17.485,28.391-21.232,39.628-21.232c18.04,0,31.938,11.866,31.938,34.972
			c0,3.747-0.297,7.804-1.182,12.801l-11.239,62.762c4.73,0,9.758-0.626,13.604-1.561l1.479,4.995
			C445.081,221.692,427.043,231.059,411.959,231.059z"/>
		<path fill="#FFFFFF" d="M552.135,110.847h-19.224l-10.938,64.634c-0.298,2.187-0.593,5.308-0.593,6.556
			c0,2.499,0.888,4.685,4.142,4.685c2.956,0,9.462-1.248,14.49-2.81l2.955,17.174c-14.489,22.479-31.64,29.973-47.315,29.973
			c-20.106,0-30.757-13.111-30.757-34.344c0-4.06,0.889-12.804,2.071-19.048l11.238-66.82l-8.28-6.869l0.887-5.621
			c12.715-21.857,42.29-45.275,68.906-53.392h4.139l-5.322,30.91h19.222C557.755,87.43,555.392,102.103,552.135,110.847
			L552.135,110.847z"/>
		<path fill="#FFFFFF" d="M684.917,183.287c4.73,0,9.76-0.626,13.604-1.562l1.477,4.998c-9.757,34.969-27.797,44.335-45.245,44.335
			c-13.011,0-21.589-5.307-24.841-18.421h-1.775c-13.308,15.613-26.613,18.421-37.557,18.421c-18.04,0-31.94-11.865-31.94-34.97
			c0-3.434,0.299-7.805,1.185-12.802l12.126-71.816l-3.549-4.058c-3.548-4.06-5.619-8.433-6.211-11.866l2.958-16.548l68.608-6.248
			L614.24,183.6c1.773,1.561,3.843,2.496,7.098,2.496c2.66,0,5.32-0.936,9.165-3.436l17.449-104.911
			c7.688-2.809,20.996-3.747,28.979-3.747c7.69,0,19.519,0.938,26.023,2.812L684.917,183.287L684.917,183.287z"/>
		<path fill="#FFFFFF" d="M780.443,109.286c-3.549,0-15.08,40.903-15.08,73.064c0,8.429,2.366,11.552,7.098,11.552
			c2.068,0,4.139-0.935,5.911-2.185l13.606-79.934C789.611,110.536,783.104,109.286,780.443,109.286z M803.216,231.059
			c-10.943,0-20.112-5.619-22.772-18.422h-1.774c-9.76,13.74-19.519,18.422-31.051,18.422c-22.179,0-38.443-18.422-38.443-54.017
			c0-70.255,27.5-104.29,58.555-104.29c10.939,0,19.812,4.059,29.866,16.237l8.282-13.426c3.843-0.937,13.307-1.561,19.812-1.561
			c7.099,0,20.406,1.248,26.616,3.433l-18.925,105.852c4.729,0,11.827-0.937,13.601-1.561l1.48,4.994
			C840.478,215.135,823.62,231.059,803.216,231.059z"/>
		<path fill="#FFFFFF" d="M915.597,183.287c4.732,0,9.759-0.626,13.603-1.562l1.479,4.998
			c-9.757,34.969-27.797,44.335-42.879,44.335c-16.857,0-28.095-5.93-31.94-18.733l31.054-173.606l-3.55-4.06
			c-3.549-4.06-5.621-8.431-6.211-11.864l2.958-16.55L948.424,0L915.597,183.287L915.597,183.287z"/>
		<path fill="#FFFFFF" d="M560.249,303.67c4.062-24.571,23.104-41.83,45.188-41.83c13.445,0,23.101,5.715,28.173,16l-17.137,15.204
			c-3.04-5.947-7.282-9.374-13.464-9.374c-9.618,0-17.381,7.771-19.401,20c-2.021,12.231,3.174,20,12.792,20
			c6.184,0,11.558-3.426,16.564-9.371l12.11,15.203c-8.468,10.284-20.014,15.998-33.459,15.998
			C569.534,345.5,556.191,328.243,560.249,303.67L560.249,303.67z"/>
		<path fill="#FFFFFF" d="M672.398,310.298l-3.353-20.114l-9.996,20.114H672.398z M675.568,329.729h-26.107l-6.917,13.944h-23.552
			l43.246-80.002h22.77l16.815,80.002h-23.946L675.568,329.729L675.568,329.729z"/>
		<path fill="#FFFFFF" d="M744.956,284.471h-8.438l-3.098,18.743h8.438c6.379,0,10.008-3.544,10.971-9.373
			C753.792,288.015,751.336,284.471,744.956,284.471L744.956,284.471z M736.342,323.56h-6.283l-3.321,20.111h-23.162l13.217-80
			h33.072c19.14,0,29.38,11.656,26.323,30.17c-1.908,11.545-8.052,20.23-17.108,25.146l10.349,24.685h-24.733L736.342,323.56
			L736.342,323.56z"/>
		<path fill="#FFFFFF" d="M827.121,301.499h20.12l-5.588,33.828c-9.437,6.629-21.507,10.174-31.612,10.174
			c-22.181,0-35.525-17.258-31.465-41.83c4.06-24.57,23.104-41.831,45.772-41.831c13.546,0,23.531,5.486,28.856,15.428
			l-17.329,15.201c-3.355-5.826-7.87-8.799-13.954-8.799c-10.206,0-17.95,7.658-19.989,20c-1.982,12,3.174,20.001,13.085,20.001
			c2.85,0,5.69-0.573,8.763-1.943L827.121,301.499L827.121,301.499z"/>
		<path fill="#FFFFFF" d="M906.245,303.67c2.059-12.457-3.567-20-12.104-20c-8.54,0-16.653,7.543-18.711,20
			c-2.06,12.459,3.563,20,12.104,20C896.07,323.67,904.188,316.129,906.245,303.67L906.245,303.67z M852.071,303.67
			c4.002-24.228,23.3-41.83,45.676-41.83c22.374,0,35.856,17.603,31.856,41.83c-4.004,24.23-23.301,41.83-45.678,41.83
			C861.55,345.5,848.067,327.9,852.071,303.67L852.071,303.67z"/>
	</g>
</g>
</svg>
